<svg width="133" height="117" viewBox="0 0 133 117" fill="none" xmlns="http://www.w3.org/2000/svg">
<path d="M43.2129 74.3477C43.2129 71.5807 42.2363 69.4648 40.2832 68C38.3301 66.5026 34.8145 64.9401 29.7363 63.3125C24.6582 61.6523 20.638 60.0247 17.6758 58.4297C9.60286 54.0677 5.56641 48.1921 5.56641 40.8027C5.56641 36.9616 6.64062 33.5436 8.78906 30.5488C10.9701 27.5215 14.0788 25.1615 18.1152 23.4688C22.1842 21.776 26.7415 20.9297 31.7871 20.9297C36.8652 20.9297 41.39 21.8574 45.3613 23.7129C49.3327 25.5358 52.4089 28.1237 54.5898 31.4766C56.8034 34.8294 57.9102 38.638 57.9102 42.9023H43.2617C43.2617 39.6471 42.2363 37.1243 40.1855 35.334C38.1348 33.5111 35.2539 32.5996 31.543 32.5996C27.9622 32.5996 25.179 33.3646 23.1934 34.8945C21.2077 36.3919 20.2148 38.3776 20.2148 40.8516C20.2148 43.1628 21.3704 45.0996 23.6816 46.6621C26.0254 48.2246 29.4596 49.6895 33.9844 51.0566C42.3177 53.5632 48.3887 56.6719 52.1973 60.3828C56.0059 64.0938 57.9102 68.7161 57.9102 74.25C57.9102 80.4023 55.5827 85.2363 50.9277 88.752C46.2728 92.235 40.0065 93.9766 32.1289 93.9766C26.6602 93.9766 21.6797 92.9837 17.1875 90.998C12.6953 88.9798 9.26107 86.2292 6.88477 82.7461C4.54102 79.263 3.36914 75.2266 3.36914 70.6367H18.0664C18.0664 78.4818 22.7539 82.4043 32.1289 82.4043C35.612 82.4043 38.3301 81.7044 40.2832 80.3047C42.2363 78.8724 43.2129 76.8867 43.2129 74.3477Z" fill="#5060FF"/>
<path d="M125.732 93H111.084V62.5312H82.5195V93H67.8711V21.9062H82.5195V50.7148H111.084V21.9062H125.732V93Z" fill="white"/>
</svg>
